<?xml version="1.0" encoding="UTF-8"?>
<svg width="100" height="100" viewBox="0 0 100 100" xmlns="http://www.w3.org/2000/svg">
  <path d="M30 35 Q 20 20 35 15 Q 50 25 65 15 Q 80 20 70 35 Q 85 50 80 80 Q 50 90 20 80 Q 15 50 30 35 Z" fill="rgba(252, 211, 77, 0.1)" stroke="#FCD34D" stroke-width="0.5" />
  
  <circle cx="38" cy="40" r="8" fill="none" stroke="black" stroke-width="0.5" />
  <circle cx="62" cy="40" r="8" fill="none" stroke="black" stroke-width="0.5" />
  <circle cx="38" cy="40" r="3" fill="#FCD34D" />
  <circle cx="62" cy="40" r="3" fill="#FCD34D" />
  
  <path d="M47 50 L50 58 L53 50 Z" fill="#FCD34D" />
  
  <path d="M20 80 Q 10 50 30 35" stroke="black" stroke-width="0.5" fill="none" stroke-dasharray="2,2"/>
  <path d="M80 80 Q 90 50 70 35" stroke="black" stroke-width="0.5" fill="none" stroke-dasharray="2,2"/>
  
  <path d="M30 32 L40 28" stroke="black" stroke-width="0.5" />
  <path d="M70 32 L60 28" stroke="black" stroke-width="0.5" />
</svg>
